<?xml version="1.0" standalone="no"?>
<!DOCTYPE svg PUBLIC "-//W3C//DTD SVG 20010904//EN"
 "http://www.w3.org/TR/2001/REC-SVG-20010904/DTD/svg10.dtd">
<svg version="1.0" xmlns="http://www.w3.org/2000/svg"
 width="16.000000pt" height="16.000000pt" viewBox="0 0 16.000000 16.000000"
 preserveAspectRatio="xMidYMid meet">
<metadata>
Created by potrace 1.11, written by Peter Selinger 2001-2013
</metadata>
<g transform="translate(0.000000,16.000000) scale(0.001998,-0.001998)"
fill="#000000" stroke="none">
<path d="M3795 6823 c-16 -2 -74 -13 -129 -24 -278 -58 -515 -187 -721 -394
-230 -229 -373 -515 -421 -838 -21 -143 -14 -389 14 -522 84 -388 311 -725
632 -936 80 -53 119 -61 158 -33 33 23 45 60 32 99 -8 24 -30 45 -93 86 -103
67 -256 215 -330 317 -164 228 -247 487 -247 771 0 387 153 729 439 985 374
334 924 411 1374 193 578 -279 861 -925 682 -1552 -14 -49 -54 -149 -90 -220
-68 -136 -72 -152 -53 -188 17 -34 39 -46 80 -47 47 0 73 30 137 159 60 118
103 243 132 381 32 151 32 429 0 580 -131 617 -588 1068 -1186 1170 -109 19
-314 25 -410 13z"/>
<path d="M3820 6264 c-328 -63 -585 -259 -721 -549 -133 -283 -128 -607 12
-887 42 -83 68 -108 112 -108 36 0 87 49 87 83 0 13 -20 67 -44 118 -65 138
-80 210 -81 364 0 137 12 200 59 317 94 233 296 406 546 469 119 30 290 24
405 -15 250 -85 435 -275 513 -528 59 -189 50 -373 -27 -566 -28 -71 -27 -98
8 -133 54 -53 115 -34 151 49 137 308 101 700 -92 979 -87 127 -230 249 -373
318 -142 69 -216 87 -385 90 -80 2 -156 1 -170 -1z"/>
<path d="M3838 5671 c-79 -26 -136 -61 -190 -119 -52 -56 -79 -103 -102 -181
-14 -49 -16 -162 -16 -1027 l0 -972 -26 -31 c-19 -23 -34 -31 -59 -31 -27 0
-42 10 -91 63 -223 237 -366 333 -516 344 -235 18 -393 -124 -392 -352 1 -138
47 -270 228 -655 231 -490 520 -982 740 -1260 358 -451 423 -568 445 -803 12
-119 20 -143 57 -157 16 -6 451 -10 1120 -10 l1096 0 27 28 c27 27 28 30 34
187 13 309 48 507 192 1095 100 408 140 654 155 960 12 242 12 665 0 759 -25
188 -153 334 -331 376 -85 20 -138 19 -233 -4 -88 -21 -126 -15 -144 22 -5 12
-24 53 -41 90 -40 89 -124 178 -205 217 -124 59 -270 63 -373 9 -73 -39 -108
-38 -142 3 -112 136 -196 190 -323 209 -65 10 -82 9 -157 -10 -47 -11 -88 -21
-92 -21 -4 0 -21 12 -38 26 l-31 26 0 413 c0 232 -4 436 -10 466 -23 124 -103
239 -211 302 -97 57 -260 73 -371 38z m196 -183 c71 -20 122 -62 153 -125 l28
-58 5 -865 c3 -476 9 -871 13 -878 17 -25 67 -43 102 -36 69 13 72 25 77 291
4 225 5 241 27 283 45 88 105 129 202 137 127 12 228 -46 268 -153 20 -51 21
-76 21 -367 l0 -312 25 -28 c35 -37 101 -38 142 -3 l28 24 5 249 5 250 30 49
c19 30 49 60 80 79 45 28 56 30 139 30 82 0 96 -3 137 -28 49 -29 87 -78 107
-136 8 -23 12 -134 12 -347 l0 -312 26 -31 c22 -26 33 -31 69 -31 32 0 52 7
72 24 28 24 28 24 33 183 5 135 9 164 27 198 45 84 118 125 225 125 91 0 151
-27 202 -88 59 -72 61 -89 60 -482 -1 -462 -22 -678 -95 -990 -28 -121 -35
-150 -68 -290 -16 -69 -41 -177 -56 -240 -14 -63 -30 -131 -35 -150 -4 -19
-16 -75 -25 -125 -9 -49 -20 -110 -25 -135 -25 -124 -50 -330 -50 -406 0 -56
-4 -68 -25 -89 l-24 -25 -935 0 -935 0 -19 25 c-11 14 -23 49 -27 77 -24 172
-116 334 -326 575 -215 246 -372 479 -619 918 -72 127 -228 432 -281 547 -182
394 -223 554 -166 639 31 47 61 59 145 59 90 0 136 -21 240 -112 160 -139 313
-345 420 -565 56 -117 57 -119 60 -218 3 -130 7 -142 42 -160 45 -23 93 -19
121 11 l24 26 5 1401 5 1402 21 45 c54 115 185 173 308 138z"/>
</g>
</svg>
