<?xml version="1.0" standalone="no"?>
<!DOCTYPE svg PUBLIC "-//W3C//DTD SVG 20010904//EN"
 "http://www.w3.org/TR/2001/REC-SVG-20010904/DTD/svg10.dtd">
<svg version="1.0" xmlns="http://www.w3.org/2000/svg"
 width="16.000000pt" height="16.000000pt" viewBox="0 0 16.000000 16.000000"
 preserveAspectRatio="xMidYMid meet">
<metadata>
Created by potrace 1.11, written by Peter Selinger 2001-2013
</metadata>
<g transform="translate(0.000000,16.000000) scale(0.001998,-0.001998)"
fill="#000000" stroke="none">
<path d="M3790 6830 c-566 -73 -1035 -462 -1214 -1007 -92 -279 -99 -606 -20
-882 76 -261 200 -470 393 -661 117 -116 281 -230 329 -230 49 0 92 46 92 97
-1 48 -17 68 -110 129 -92 59 -233 194 -301 286 -302 406 -348 932 -123 1380
66 130 126 211 249 333 177 175 340 269 575 330 138 36 368 45 506 21 509 -88
902 -459 1031 -973 25 -99 28 -123 27 -303 0 -168 -3 -208 -22 -285 -37 -147
-74 -239 -166 -410 -20 -37 -20 -58 -2 -94 28 -54 97 -66 144 -26 71 60 191
355 228 560 24 136 24 374 0 510 -109 608 -551 1071 -1151 1205 -102 23 -358
34 -465 20z"/>
<path d="M3786 6265 c-323 -67 -597 -294 -716 -595 -110 -276 -101 -561 24
-825 48 -102 68 -123 119 -132 32 -5 41 -1 72 30 45 45 45 68 -4 165 -69 138
-85 207 -86 372 0 122 4 158 23 223 80 276 294 490 558 557 92 24 270 27 354
6 463 -114 722 -603 559 -1054 -48 -133 -48 -145 -5 -188 32 -32 41 -36 72
-31 20 3 43 12 52 19 23 19 68 125 94 220 31 114 33 374 4 488 -45 176 -125
325 -244 451 -132 140 -289 234 -477 285 -83 22 -309 28 -399 9z"/>
<path d="M3844 5681 c-160 -46 -283 -180 -314 -341 -6 -33 -10 -409 -10 -1010
0 -953 0 -957 -21 -984 -14 -18 -30 -26 -52 -26 -27 0 -47 16 -142 113 -233
238 -380 315 -556 289 -141 -20 -226 -78 -280 -191 -27 -56 -37 -200 -20 -282
59 -275 528 -1198 824 -1621 45 -64 139 -188 208 -275 282 -354 356 -498 374
-731 6 -77 11 -98 30 -120 l23 -27 1116 0 1116 0 27 27 c27 27 28 31 34 190
14 308 40 462 164 978 169 701 185 826 185 1443 0 441 -2 463 -52 561 -27 52
-110 140 -162 169 -107 62 -259 79 -383 43 -59 -18 -64 -18 -89 -1 -14 9 -32
33 -41 53 -35 89 -59 127 -110 182 -99 107 -190 144 -346 138 -91 -3 -109 -7
-166 -35 -75 -37 -108 -32 -141 21 -33 55 -117 126 -185 158 -87 40 -175 51
-263 31 -115 -26 -116 -26 -145 -3 l-27 21 0 412 c0 445 -5 499 -53 594 -96
189 -329 285 -543 224z m253 -227 c29 -18 59 -49 78 -78 l30 -49 5 -872 c5
-806 6 -873 22 -897 32 -49 119 -50 164 -1 24 26 24 27 24 248 0 258 7 293 76
361 44 45 116 74 180 74 84 0 193 -70 226 -145 9 -22 14 -120 18 -363 l5 -334
33 -29 c45 -41 102 -41 143 0 l29 29 0 222 c0 180 3 231 17 273 42 130 192
197 326 147 70 -26 97 -50 131 -113 l26 -48 0 -302 c0 -176 4 -317 10 -339 22
-79 114 -105 171 -49 l29 29 0 134 c0 162 14 212 75 273 76 76 193 95 295 48
53 -25 79 -51 111 -113 l24 -45 -1 -410 c0 -390 -6 -497 -35 -670 -28 -166
-55 -297 -110 -525 -27 -113 -54 -224 -59 -247 -6 -24 -15 -62 -20 -85 -6 -24
-14 -63 -19 -88 -5 -25 -20 -103 -35 -175 -46 -230 -60 -328 -72 -499 -5 -75
-10 -93 -30 -112 l-23 -24 -920 0 -920 0 -27 23 c-21 18 -29 37 -35 85 -23
167 -112 330 -293 532 -66 74 -162 197 -300 383 -21 29 -61 89 -90 135 -28 45
-58 93 -66 106 -19 31 -81 135 -95 161 -6 11 -41 72 -77 135 -85 150 -143 258
-216 405 -63 125 -152 314 -152 321 0 2 -9 23 -20 47 -54 116 -92 244 -97 327
-5 78 -3 88 19 120 48 71 172 80 273 19 173 -102 411 -402 532 -669 41 -92 43
-99 43 -195 0 -78 4 -106 17 -125 24 -36 32 -40 90 -40 45 0 54 4 77 31 l26
31 0 1387 c0 1551 -5 1446 71 1522 75 75 223 90 316 33z"/>
</g>
</svg>
